<svg xmlns="http://www.w3.org/2000/svg" width="45" height="41.995" viewBox="0 0 45 41.995">
    <defs>
        <filter id="패스_1" width="45" height="41.995" x="0" y="0" filterUnits="userSpaceOnUse">
            <feOffset/>
            <feGaussianBlur result="blur" stdDeviation="1"/>
            <feFlood flood-opacity=".251"/>
            <feComposite in2="blur" operator="in"/>
            <feComposite in="SourceGraphic"/>
        </filter>
        <style>
            .cls-1{fill:#fff}.cls-3{fill:#0091c1}.cls-4{fill:#00ded1}
        </style>
    </defs>
    <g id="sample_icon" transform="translate(3 3)">
        <g filter="url(#패스_1)" transform="translate(-3 -3)">
            <path id="패스_1-2" d="M306.173 1607.439a2.231 2.231 0 0 1-1.607-.674 1.458 1.458 0 0 1-.1-.116 17.208 17.208 0 0 0-3.255-3.438c-6.017-2.632-9.426-7.426-9.6-13.5a13.67 13.67 0 0 1 3.992-10.033 14.853 14.853 0 0 1 17.073-2.917 9.4 9.4 0 1 1 8.5 13.345c-.151 0-.3 0-.455-.011-.3 5.891-3.695 10.54-9.584 13.116a17.208 17.208 0 0 0-3.255 3.438c-.032.04-.066.079-.1.116a2.233 2.233 0 0 1-1.609.674z" class="cls-1" transform="translate(-288.6 -1568.44)"/>
        </g>
        <path id="패스_2" fill="#666" d="M321.887 1573.444a8.135 8.135 0 0 0-7.827 5.872 13.543 13.543 0 0 0-7.176-2.057c-7.332 0-13.483 5.887-13.275 13.141.166 5.825 3.557 10.062 8.832 12.368 1.234.541 3.76 3.834 3.76 3.834a.957.957 0 0 0 1.365 0s2.526-3.293 3.761-3.834c5.275-2.307 8.665-6.543 8.832-12.368.01-.351 0-.694-.018-1.036a8.225 8.225 0 0 0 1.746.191 8.056 8.056 0 1 0 0-16.111z" transform="translate(-292.316 -1572.169)"/>
        <path id="패스_3" d="M306.885 1579.429c-7.332 0-13.483 5.887-13.275 13.141.166 5.825 3.557 10.061 8.832 12.368 1.234.541 3.76 3.834 3.76 3.834a.957.957 0 0 0 1.365 0s2.526-3.293 3.761-3.834c5.275-2.308 8.665-6.543 8.832-12.368.207-7.255-5.943-13.14-13.275-13.141z" class="cls-3" transform="translate(-292.316 -1574.338)"/>
        <ellipse id="타원_1" cx="10.742" cy="10.631" class="cls-1" rx="10.742" ry="10.631" transform="translate(3.826 7.487)"/>
        <g id="그룹_3" transform="translate(9.203 10.449)">
            <g id="그룹_1">
                <rect id="사각형_2" width="8.798" height="13.425" class="cls-1" rx="3.789" transform="translate(.967 .956)"/>
                <path id="패스_4" d="M313.214 1603.171H309.3a3.393 3.393 0 0 1-3.408-3.371v-8.594a3.394 3.394 0 0 1 3.408-3.372h3.916a3.394 3.394 0 0 1 3.408 3.372v8.594a3.393 3.393 0 0 1-3.41 3.371zm-3.916-13.424a1.469 1.469 0 0 0-1.475 1.459v8.594a1.469 1.469 0 0 0 1.475 1.459h3.916a1.468 1.468 0 0 0 1.475-1.459v-8.594a1.468 1.468 0 0 0-1.475-1.459z" class="cls-3" transform="translate(-305.89 -1587.834)"/>
            </g>
            <g id="그룹_2" transform="translate(2.651 3.109)">
                <rect id="사각형_3" width="2.2" height="5.43" class="cls-4" rx="1.1" transform="rotate(90 -.745 6.175)"/>
                <rect id="사각형_4" width="2.2" height="5.43" class="cls-4" rx="1.1" transform="rotate(90 2.715 2.715)"/>
            </g>
            <rect id="사각형_5" width="2.2" height="5.43" class="cls-4" rx="1.1" transform="rotate(90 .755 7.325)"/>
        </g>
        <g id="그룹_5" transform="translate(21.432 1.275)">
            <ellipse id="타원_2" cx="7.047" cy="6.974" class="cls-3" rx="7.047" ry="6.974" transform="translate(1.092 1.081)"/>
            <path id="패스_5" d="M333.012 1573.444a8.056 8.056 0 1 0 8.14 8.056 8.107 8.107 0 0 0-8.14-8.056zm0 13.948a5.893 5.893 0 1 1 5.956-5.893 5.93 5.93 0 0 1-5.956 5.894z" class="cls-3" transform="translate(-324.873 -1573.444)"/>
            <g id="그룹_4" transform="translate(3.968 4.384)">
                <path id="패스_6" d="M336.641 1585.841h-.83v1.841h-1.659v-1.841h-3.118v-1.217l2.588-4.3h2.189v4.185h.83zm-2.489-1.336v-1.077c0-.466.05-1.169.071-1.633h-.041c-.19.415-.39.842-.6 1.257l-.851 1.453z" class="cls-1" transform="translate(-331.033 -1580.32)"/>
                <path id="패스_7" d="M341.651 1582.762h-1.163v-.721h1.163v-1.2h.757v1.2h1.169v.721h-1.169v1.209h-.757z" class="cls-1" transform="translate(-334.397 -1580.508)"/>
            </g>
        </g>
    </g>
</svg>
